HIERARCHY
ROOT hip
{
  OFFSET 0 0 0
  CHANNELS 6 Xposition Yposition Zposition Zrotation Yrotation Xrotation
  JOINT abdomen
  {
    OFFSET 0 20.6881 -0.73152
    CHANNELS 3 Zrotation Xrotation Yrotation
    JOINT chest
    {
      OFFSET 0 11.7043 -0.48768
      CHANNELS 3 Zrotation Xrotation Yrotation
      JOINT neck
      {
        OFFSET 0 22.1894 -2.19456
        CHANNELS 3 Zrotation Xrotation Yrotation
        JOINT head
        {
          OFFSET -0.24384 7.07133 1.2192
          CHANNELS 3 Zrotation Xrotation Yrotation
          JOINT leftEye
          {
            OFFSET 4.14528 8.04674 8.04672
            CHANNELS 3 Zrotation Xrotation Yrotation
            End Site
            {
              OFFSET 1 0 0
            }
          }
          JOINT rightEye
          {
            OFFSET -3.6576 8.04674 8.04672
            CHANNELS 3 Zrotation Xrotation Yrotation
            End Site
            {
              OFFSET 1 0 0
            }
          }
        }
      }
      JOINT rCollar
      {
        OFFSET -2.68224 19.2634 -4.8768
        CHANNELS 3 Zrotation Xrotation Yrotation
        JOINT rShldr
        {
          OFFSET -8.77824 -1.95073 1.46304
          CHANNELS 3 Zrotation Xrotation Yrotation
          JOINT rForeArm
          {
            OFFSET -28.1742 -1.7115 0.48768
            CHANNELS 3 Zrotation Xrotation Yrotation
            JOINT rHand
            {
              OFFSET -22.5879 0.773209 7.07136
              CHANNELS 3 Zrotation Xrotation Yrotation
              JOINT rThumb1
              {
                OFFSET -1.2192 -0.487915 3.41376
                CHANNELS 3 Zrotation Xrotation Yrotation
                JOINT rThumb2
                {
                  OFFSET -3.37035 -0.52449 3.41376
                  CHANNELS 3 Zrotation Xrotation Yrotation
                  End Site
                  {
                    OFFSET -1.78271 -1.18214 1.43049
                  }
                }
              }
              JOINT rIndex1
              {
                OFFSET -7.75947 0.938293 5.60832
                CHANNELS 3 Zrotation Xrotation Yrotation
                JOINT rIndex2
                {
                  OFFSET -2.54057 -0.884171 1.56538
                  CHANNELS 3 Zrotation Xrotation Yrotation
                  End Site
                  {
                    OFFSET -1.62519 -0.234802 1.16502
                  }
                }
              }
              JOINT rMid1
              {
                OFFSET -8.24714 1.18213 3.41376
                CHANNELS 3 Zrotation Xrotation Yrotation
                JOINT rMid2
                {
                  OFFSET -3.10165 -0.590103 1.0647
                  CHANNELS 3 Zrotation Xrotation Yrotation
                  End Site
                  {
                    OFFSET -2.48547 -0.328903 0.83742
                  }
                }
              }
              JOINT rRing1
              {
                OFFSET -8.82822 0.546677 1.51678
                CHANNELS 3 Zrotation Xrotation Yrotation
                JOINT rRing2
                {
                  OFFSET -2.60934 -0.819778 -0.0198488
                  CHANNELS 3 Zrotation Xrotation Yrotation
                  End Site
                  {
                    OFFSET -2.33842 -0.294052 0.168128
                  }
                }
              }
              JOINT rPinky1
              {
                OFFSET -8.27202 -0.0477905 -0.4584
                CHANNELS 3 Zrotation Xrotation Yrotation
                JOINT rPinky2
                {
                  OFFSET -1.82734 -0.647385 -0.700984
                  CHANNELS 3 Zrotation Xrotation Yrotation
                  End Site
                  {
                    OFFSET -1.69225 -0.51767 -0.607171
                  }
                }
              }
            }
          }
        }
      }
      JOINT lCollar
      {
        OFFSET 2.68224 19.2634 -4.8768
        CHANNELS 3 Zrotation Xrotation Yrotation
        JOINT lShldr
        {
          OFFSET 8.77824 -1.95073 1.46304
          CHANNELS 3 Zrotation Xrotation Yrotation
          JOINT lForeArm
          {
            OFFSET 28.1742 -1.7115 0.48768
            CHANNELS 3 Zrotation Xrotation Yrotation
            JOINT lHand
            {
              OFFSET 22.5879 0.773209 7.07136
              CHANNELS 3 Zrotation Xrotation Yrotation
              JOINT lThumb1
              {
                OFFSET 1.2192 -0.487915 3.41376
                CHANNELS 3 Zrotation Xrotation Yrotation
                JOINT lThumb2
                {
                  OFFSET 3.37035 -0.52449 3.41376
                  CHANNELS 3 Zrotation Xrotation Yrotation
                  End Site
                  {
                    OFFSET 1.78271 -1.18214 1.43049
                  }
                }
              }
              JOINT lIndex1
              {
                OFFSET 7.75947 0.938293 5.60832
                CHANNELS 3 Zrotation Xrotation Yrotation
                JOINT lIndex2
                {
                  OFFSET 2.54057 -0.884171 1.56538
                  CHANNELS 3 Zrotation Xrotation Yrotation
                  End Site
                  {
                    OFFSET 1.62519 -0.234802 1.16502
                  }
                }
              }
              JOINT lMid1
              {
                OFFSET 8.24714 1.18213 3.41376
                CHANNELS 3 Zrotation Xrotation Yrotation
                JOINT lMid2
                {
                  OFFSET 3.10165 -0.590103 1.0647
                  CHANNELS 3 Zrotation Xrotation Yrotation
                  End Site
                  {
                    OFFSET 2.48547 -0.328903 0.83742
                  }
                }
              }
              JOINT lRing1
              {
                OFFSET 8.82822 0.546677 1.51678
                CHANNELS 3 Zrotation Xrotation Yrotation
                JOINT lRing2
                {
                  OFFSET 2.60934 -0.819778 -0.0198488
                  CHANNELS 3 Zrotation Xrotation Yrotation
                  End Site
                  {
                    OFFSET 2.33842 -0.294052 0.168128
                  }
                }
              }
              JOINT lPinky1
              {
                OFFSET 8.27202 -0.0477905 -0.4584
                CHANNELS 3 Zrotation Xrotation Yrotation
                JOINT lPinky2
                {
                  OFFSET 1.82734 -0.647385 -0.700984
                  CHANNELS 3 Zrotation Xrotation Yrotation
                  End Site
                  {
                    OFFSET 1.69225 -0.51767 -0.607171
                  }
                }
              }
            }
          }
        }
      }
    }
  }
  JOINT rButtock
  {
    OFFSET -8.77824 4.35084 1.2192
    CHANNELS 3 Zrotation Xrotation Yrotation
    JOINT rThigh
    {
      OFFSET 0 -1.70687 -2.19456
      CHANNELS 3 Zrotation Xrotation Yrotation
      JOINT rShin
      {
        OFFSET 0 -36.8199 0.73152
        CHANNELS 3 Zrotation Xrotation Yrotation
        JOINT rFoot
        {
          OFFSET 0.73152 -45.1104 -5.12064
          CHANNELS 3 Zrotation Xrotation Yrotation
          End Site
          {
            OFFSET -1.1221 -3.69964 12.103
          }
        }
      }
    }
  }
  JOINT lButtock
  {
    OFFSET 8.77824 4.35084 1.2192
    CHANNELS 3 Zrotation Xrotation Yrotation
    JOINT lThigh
    {
      OFFSET 0 -1.70687 -2.19456
      CHANNELS 3 Zrotation Xrotation Yrotation
      JOINT lShin
      {
        OFFSET 0 -36.8199 0.73152
        CHANNELS 3 Zrotation Xrotation Yrotation
        JOINT lFoot
        {
          OFFSET -0.73152 -45.1104 -5.12064
          CHANNELS 3 Zrotation Xrotation Yrotation
          End Site
          {
            OFFSET 1.1221 -3.69964 12.103
          }
        }
      }
    }
  }
}
MOTION
Frames:	6
Frame Time:	0.00833333
-75.1371 85.1887 -9.8969 0.0 0.0 0.0 0.559351 -0.00286671 0.0159888 0.154366 -0.00442833 0.0267461 -3.84895e-15 7.95139e-16 -1.49088e-16 -1.17097e-14 3.18055e-15 -4.4416e-16 -0.0 0.0 0.0 -0.0 0.0 0.0 -1.79042e-15 3.88251e-18 1.49089e-16 -3.90058e-14 2.11209e-16 -7.95139e-16 -6.91025e-13 2.10911e-13 -3.81667e-14 -7.94743e-12 -1.94287e-13 -3.14875e-13 -1.87447e-11 3.65485e-14 -7.56972e-13 -3.2384e-11 6.99722e-14 -1.31039e-12 -1.87414e-11 3.77691e-14 -7.72875e-13 7.73091 5.47488 0.417314 -1.87458e-11 3.62782e-14 -7.60153e-13 2.90554 0.965183 0.102902 -1.87404e-11 3.61788e-14 -7.53791e-13 10.2786 0.731801 0.0259123 -1.87492e-11 3.97569e-14 -7.4425e-13 2.22167 -0.733487 -0.20892 -2.08601e-15 4.27076e-18 -2.48481e-16 -4.05387e-14 -1.80149e-16 -2.5842e-15 -6.98082e-13 -2.0773e-13 -3.18055e-15 -7.94303e-12 2.15333e-13 -3.40319e-13 -1.87415e-11 1.95291e-14 -7.53791e-13 -3.2361e-11 3.49861e-14 -1.29608e-12 -1.87454e-11 1.94809e-14 -7.41069e-13 -7.73091 5.47488 -0.417314 -1.87406e-11 1.86858e-14 -7.53791e-13 -2.90554 0.965183 -0.102902 -1.87449e-11 1.92821e-14 -7.53791e-13 -10.2786 0.731801 -0.0259123 -1.87368e-11 2.22639e-14 -7.63333e-13 -2.22167 -0.733487 0.20892 -2.03217e-16 0.0 -3.88251e-19 0.922995 -4.50513 -0.0770317 -0.00206831 2.60853 -0.0096298 -0.502463 1.89677 0.0959422 2.03217e-16 0.0 3.88251e-19 -0.0712446 -2.35216 0.0224557 0.00807194 -1.29119 0.0691985 0.494615 3.64342 -0.130518
-72.3074 84.0997 -13.2287 -15.1875 85.1294 -7.747 -0.511172 -1.12465 1.83645 -0.0424188 0.670654 0.55082 -1.92451 4.84817 -3.42132 1.88749 -6.99707 -6.46686 -0.0 0.0 0.0 -0.0 0.0 0.0 2.24726e-15 5.58536e-13 3.48657e-14 24.6333 5.25158 -0.364839 -4.80259 -2.31212 7.35498 0.117921 7.6306 1.03839 -2.83294e-10 -6.9177e-11 1.9465e-10 -4.84191e-10 -1.19422e-10 3.42402e-10 -2.83287e-10 -6.91736e-11 1.94634e-10 7.73091 5.47488 0.417314 -2.83295e-10 -6.91766e-11 1.94647e-10 2.90554 0.965183 0.102902 -2.83289e-10 -6.91771e-11 1.94654e-10 10.2786 0.731801 0.0259123 -2.833e-10 -6.91742e-11 1.94665e-10 2.22167 -0.733487 -0.20892 2.03298e-15 5.58533e-13 3.45237e-14 -22.4969 3.61427 -0.818911 4.19896 -1.90372 -6.5629 -0.00504876 -1.57815 0.221492 -1.03768e-10 4.38585e-10 -1.11262e-10 -1.79754e-10 7.5928e-10 -1.91674e-10 -1.03773e-10 4.38587e-10 -1.11247e-10 -7.73091 5.47488 -0.417314 -1.03768e-10 4.38585e-10 -1.1126e-10 -2.90554 0.965183 -0.102902 -1.03775e-10 4.38586e-10 -1.11262e-10 -10.2786 0.731801 -0.0259123 -1.03764e-10 4.38587e-10 -1.11272e-10 -2.22167 -0.733487 0.20892 -2.03217e-16 0.0 -3.88251e-19 -0.924457 -8.45821 -1.18868 0.00843402 9.09077 0.122742 -0.866816 -2.47 -3.30713 2.03217e-16 0.0 3.88251e-19 0.115657 -5.14481 1.57113 0.00188045 1.67555 0.0112175 0.569425 0.179325 2.04857
-72.3266 84.0122 -13.4302 -14.1367 85.1616 -6.7671 -1.58484 -2.30937 3.78932 -0.257991 1.38783 1.11272 -3.32137 9.92334 -7.12063 2.11391 -14.072 -13.6278 -0.0 0.0 0.0 -0.0 0.0 0.0 6.28854e-15 1.20123e-12 7.4712e-14 50.7559 10.8453 -0.768239 -9.24856 -4.63607 15.1818 -0.0686022 15.6768 2.1975 -5.71546e-10 -1.43816e-10 4.07867e-10 -9.76431e-10 -2.48269e-10 7.17425e-10 -5.71534e-10 -1.4381e-10 4.0785e-10 7.73091 5.47488 0.417314 -5.71548e-10 -1.43814e-10 4.07863e-10 2.90554 0.965183 0.102902 -5.7154e-10 -1.43815e-10 4.0787e-10 10.2786 0.731801 0.0259123 -5.71553e-10 -1.43813e-10 4.07883e-10 2.22167 -0.733487 -0.20892 6.16079e-15 1.20123e-12 7.44293e-14 -46.1786 7.39279 -1.66168 8.16615 -3.83235 -13.5226 0.00289298 -3.23741 0.454937 -1.9873e-10 9.33771e-10 -2.2102e-10 -3.44406e-10 1.61658e-09 -3.80658e-10 -1.98735e-10 9.33775e-10 -2.21002e-10 -7.73091 5.47488 -0.417314 -1.98731e-10 9.33772e-10 -2.21016e-10 -2.90554 0.965183 -0.102902 -1.9874e-10 9.33772e-10 -2.21019e-10 -10.2786 0.731801 -0.0259123 -1.98725e-10 9.33773e-10 -2.21029e-10 -2.22167 -0.733487 0.20892 -2.03217e-16 0.0 -3.88251e-19 -3.05749 -12.5677 -2.39072 -0.0142178 15.8758 0.268727 -1.81225 -7.04954 -6.92323 2.03217e-16 0.0 3.88251e-19 0.471885 -8.04808 3.21784 0.00190643 4.78356 -0.0499057 0.936862 -3.46997 4.37526
-72.3592 83.9313 -13.6282 -13.6898 85.2642 -6.3873 -2.43841 -3.35454 5.48574 -0.473052 2.02012 1.59985 -3.99966 14.3338 -10.5595 0.774693 -19.8909 -20.5303 -0.0 0.0 0.0 -0.0 0.0 0.0 1.03226e-14 1.6756e-12 1.04299e-13 74.1073 15.7521 -1.13246 -12.6664 -6.48014 22.1962 -0.535645 22.8604 3.35106 -8.12393e-10 -2.07604e-10 5.85465e-10 -1.3878e-09 -3.58405e-10 1.02983e-09 -8.12377e-10 -2.07596e-10 5.85449e-10 7.73091 5.47488 0.417314 -8.12395e-10 -2.07602e-10 5.85462e-10 2.90554 0.965183 0.102902 -8.12387e-10 -2.07604e-10 5.85469e-10 10.2786 0.731801 0.0259123 -8.124e-10 -2.07602e-10 5.85484e-10 2.22167 -0.733487 -0.20892 1.02709e-14 1.67559e-12 1.04068e-13 -67.176 10.8339 -2.49637 11.3122 -5.41205 -19.7695 0.0215641 -4.73417 0.666498 -2.73822e-10 1.31572e-09 -3.32279e-10 -4.74539e-10 2.27777e-09 -5.72431e-10 -2.73827e-10 1.31572e-09 -3.32258e-10 -7.73091 5.47488 -0.417314 -2.73824e-10 1.31572e-09 -3.32273e-10 -2.90554 0.965183 -0.102902 -2.73834e-10 1.31572e-09 -3.32278e-10 -10.2786 0.731801 -0.0259123 -2.73817e-10 1.31572e-09 -3.32288e-10 -2.22167 -0.733487 0.20892 -2.03217e-16 0.0 -3.88251e-19 -5.09718 -16.3406 -3.51585 -0.0666116 22.0548 0.413068 -3.1662 -11.0397 -10.2965 2.03217e-16 0.0 3.88251e-19 0.949051 -10.7001 4.73198 0.00758993 7.60901 -0.105654 1.51131 -6.70621 6.45051
-72.4131 83.8678 -13.7977 -14.0911 85.4166 -6.843 -2.89825 -4.06478 6.53274 -0.659504 2.44093 1.89916 -4.1526 17.2842 -13.0633 -0.987765 -23.6153 -25.7176 -0.0 0.0 0.0 -0.0 0.0 0.0 1.43387e-14 1.72913e-12 1.08238e-13 90.3724 18.9444 -1.35947 -14.7385 -7.56603 27.052 -1.06191 27.9166 4.27047 -9.34728e-10 -2.44267e-10 6.7402e-10 -1.59701e-09 -4.21764e-10 1.18567e-09 -9.34709e-10 -2.44259e-10 6.74004e-10 7.73091 5.47488 0.417314 -9.34729e-10 -2.44265e-10 6.74017e-10 2.90554 0.965183 0.102902 -9.3472e-10 -2.44267e-10 6.74024e-10 10.2786 0.731801 0.0259123 -9.34735e-10 -2.44265e-10 6.74039e-10 2.22167 -0.733487 -0.20892 1.43369e-14 1.72912e-12 1.08039e-13 -81.6583 13.4378 -3.27922 13.3008 -6.40384 -24.1577 0.0417957 -5.82495 0.821504 -2.99236e-10 1.41456e-09 -4.47291e-10 -5.18374e-10 2.44869e-09 -7.71178e-10 -2.99242e-10 1.41456e-09 -4.47269e-10 -7.73091 5.47488 -0.417314 -2.99239e-10 1.41456e-09 -4.47285e-10 -2.90554 0.965183 -0.102902 -2.9925e-10 1.41456e-09 -4.4729e-10 -10.2786 0.731801 -0.0259123 -2.99232e-10 1.41456e-09 -4.473e-10 -2.22167 -0.733487 0.20892 -2.03217e-16 0.0 -3.88251e-19 -6.57783 -19.2919 -4.36607 -0.127033 26.7187 0.5317 -4.4435 -13.7121 -12.8771 2.03217e-16 0.0 3.88251e-19 1.41807 -12.7497 5.8632 0.015083 9.72806 -0.146946 2.03568 -8.95615 7.84213
-72.4904 83.8323 -13.9466 -14.1692 85.5681 -6.9446 -2.8671 -4.33937 6.64348 -0.79912 2.56472 1.92891 -4.16296 18.3299 -14.0584 -1.72196 -25.1962 -27.8145 -0.0 0.0 0.0 -0.0 0.0 0.0 1.94109e-14 1.06154e-12 6.84829e-14 96.6307 19.7106 -1.34093 -15.4193 -7.88414 28.7982 -1.32921 29.9899 4.68108 -8.6091e-10 -2.32947e-10 6.10583e-10 -1.47175e-09 -4.02381e-10 1.0744e-09 -8.60893e-10 -2.32942e-10 6.10569e-10 7.73091 5.47488 0.417314 -8.6091e-10 -2.32948e-10 6.10581e-10 2.90554 0.965183 0.102902 -8.60903e-10 -2.32949e-10 6.10586e-10 10.2786 0.731801 0.0259123 -8.60918e-10 -2.32947e-10 6.10601e-10 2.22167 -0.733487 -0.20892 1.94206e-14 1.06153e-12 6.82868e-14 -87.1065 14.8657 -3.97662 14.0407 -6.76637 -25.8937 0.052988 -6.35467 0.897042 -2.4606e-10 1.03135e-09 -5.78869e-10 -4.25602e-10 1.78479e-09 -9.99384e-10 -2.46066e-10 1.03136e-09 -5.78846e-10 -7.73091 5.47488 -0.417314 -2.46062e-10 1.03135e-09 -5.78863e-10 -2.90554 0.965183 -0.102902 -2.46073e-10 1.03135e-09 -5.78869e-10 -10.2786 0.731801 -0.0259123 -2.46056e-10 1.03135e-09 -5.78878e-10 -2.22167 -0.733487 0.20892 -2.03217e-16 0.0 -3.88251e-19 -7.13209 -21.1818 -4.80535 -0.165192 29.2996 0.59941 -5.13171 -14.6253 -14.2939 2.03217e-16 0.0 3.88251e-19 1.73827 -14.0419 6.43872 0.0195612 10.8909 -0.167612 2.23365 -9.86449 8.21966
